<svg width="114" height="103" viewBox="0 0 114 103" fill="none" xmlns="http://www.w3.org/2000/svg">
<path d="M48.6462 83.6996C47.7991 84.7742 44.8139 86.2812 39.6494 83.713C37.5092 82.829 36.8687 83.4882 32.4835 78.6296C28.9754 74.7427 30.0764 71.2081 33.9428 67.9921L49.1996 53.5041C49.9832 58.164 51.8007 69.0559 52.8015 75.3437C53.8023 81.6316 50.4483 83.5343 48.6462 83.6996Z" fill="#FFAA7A"/>
<path fill-rule="evenodd" clip-rule="evenodd" d="M55.9701 34.4718L33.5336 48.4254C25.3896 53.1812 20.0768 58.73 19.6866 65.3149C19.6373 66.1461 19.6082 66.8832 19.5973 67.5385C19.5354 67.4579 19.4739 67.3754 19.413 67.291C19.0586 66.9205 18.7091 66.6622 18.3769 66.4167L18.3769 66.4167C17.0317 65.4227 15.9705 64.6384 16.0182 57.4638C16.0659 50.3065 21.8639 44.575 30.9812 39.8784L60.6032 23.4904C58.8403 26.5107 57.4114 30.3204 55.9701 34.4718Z" fill="#8BC385"/>
<path fill-rule="evenodd" clip-rule="evenodd" d="M64.2573 19.6924L31.0527 36.0666C21.817 40.251 15.4091 45.1773 13.2316 51.0562C13.1983 50.8214 13.1652 50.5811 13.1324 50.3352C11.2502 36.2246 17.8929 30.0465 26.8044 26.589C32.0127 24.5683 36.4746 23.8358 40.4455 23.184L40.4455 23.184L40.4455 23.184C43.2689 22.7205 45.844 22.2978 48.2626 21.4818C51.6443 20.3408 67.0221 11.2689 67.0221 11.2689C65.8309 13.5081 64.969 16.4047 64.2573 19.6924ZM31.3649 69.0164C31.4171 69.1549 31.4725 69.2938 31.531 69.4331C31.579 69.4313 31.6268 69.4292 31.6745 69.4268C31.573 69.2958 31.4699 69.1591 31.3649 69.0164Z" fill="#3A8033"/>
<path fill-rule="evenodd" clip-rule="evenodd" d="M63.086 24.265L77.6882 57.409C80.8873 64.0946 82.6934 70.1013 82.6289 75.1284C91.2715 66.7737 90.4874 58.4203 86.7507 50.4516C84.4445 45.5334 81.8341 42.0333 79.511 38.9183C77.8593 36.7036 76.3528 34.6835 75.2041 32.487C73.5979 29.4158 68.762 12.6767 68.762 12.6767C67.902 16.0981 65.7251 20.0295 63.086 24.265ZM62.3993 76.0258C62.0229 77.8264 61.2415 79.3683 60.002 80.6121C58.4447 79.8679 57.1763 78.8657 56.1733 77.7956C57.6812 77.5406 59.6445 77.0065 62.3993 76.0258Z" fill="#3A8033"/>
<path fill-rule="evenodd" clip-rule="evenodd" d="M57.6284 36.1347L57.5806 36.2074C58.6839 32.3839 59.5911 28.811 59.8893 25.6122L74.3439 56.3694C78.9944 65.5528 80.3597 73.6301 76.2465 79.4914C72.1234 85.3669 70.81 85.3827 69.1454 85.4027C68.7343 85.4076 68.3017 85.4128 67.8001 85.5066C67.2056 85.7063 66.635 85.8386 66.0885 85.9122C66.8349 85.21 67.7759 84.0086 69.0837 81.9526C72.2218 77.0197 71.0644 70.1577 67.3337 62.3277L60.1284 46.0745L57.6284 36.1347Z" fill="#8BC385"/>
<path fill-rule="evenodd" clip-rule="evenodd" d="M52.803 47.0349L55.977 73.2057C56.99 78.985 56.0023 83.3511 51.8876 85.3055C53.0341 85.9437 54.4646 86.2761 56.2095 86.0016C56.6085 85.9918 56.947 86.0379 57.2688 86.0818C58.5715 86.2593 59.5993 86.3994 63.2566 82.6374C66.9051 78.8845 66.4348 72.9015 63.4782 65.7419L54.4522 41.8921C54.1179 43.5102 53.5282 45.2295 52.803 47.0349Z" fill="#FFD500"/>
<path fill-rule="evenodd" clip-rule="evenodd" d="M50.7526 47.8384L32.713 63.4126C28.1027 66.9208 26.3103 70.905 29.1479 75.4813C27.7484 75.3867 26.2955 74.7717 25.0713 73.2103C24.804 72.9519 24.5436 72.7746 24.296 72.606C23.2936 71.9236 22.5027 71.3851 22.3265 66.195C22.1506 61.0174 26.177 56.7152 32.6352 53.0717L53.5848 40.4174C52.4828 42.4904 51.6091 45.048 50.7526 47.8384Z" fill="#FFD500"/>
</svg>
